<?xml version="1.0" encoding="UTF-8" standalone="no"?>
<!-- Created with Inkscape (http://www.inkscape.org/) -->

<svg
   xmlns:osb="http://www.openswatchbook.org/uri/2009/osb"
   xmlns:dc="http://purl.org/dc/elements/1.1/"
   xmlns:cc="http://creativecommons.org/ns#"
   xmlns:rdf="http://www.w3.org/1999/02/22-rdf-syntax-ns#"
   xmlns:svg="http://www.w3.org/2000/svg"
   xmlns="http://www.w3.org/2000/svg"
   xmlns:xlink="http://www.w3.org/1999/xlink"
   xmlns:sodipodi="http://sodipodi.sourceforge.net/DTD/sodipodi-0.dtd"
   xmlns:inkscape="http://www.inkscape.org/namespaces/inkscape"
   width="210mm"
   height="297mm"
   id="svg2"
   version="1.1"
   inkscape:version="0.48.4 r9939"
   inkscape:export-filename="/home/erivaldo/workspace/drca/src/img/logo.png"
   inkscape:export-xdpi="90"
   inkscape:export-ydpi="90"
   sodipodi:docname="Novo documento 1">
  <defs
     id="defs4">
    <linearGradient
       inkscape:collect="always"
       id="linearGradient5281">
      <stop
         style="stop-color:#999999;stop-opacity:1;"
         offset="0"
         id="stop5283" />
      <stop
         style="stop-color:#999999;stop-opacity:0;"
         offset="1"
         id="stop5285" />
    </linearGradient>
    <linearGradient
       id="linearGradient5253"
       osb:paint="solid">
      <stop
         style="stop-color:#cccccc;stop-opacity:1;"
         offset="0"
         id="stop5255" />
    </linearGradient>
    <linearGradient
       id="linearGradient3781">
      <stop
         style="stop-color:#cccccc;stop-opacity:1;"
         offset="0"
         id="stop3783" />
      <stop
         style="stop-color:#cccccc;stop-opacity:0;"
         offset="1"
         id="stop3785" />
    </linearGradient>
    <linearGradient
       inkscape:collect="always"
       xlink:href="#linearGradient5281"
       id="linearGradient5287"
       x1="333.48294"
       y1="510.71379"
       x2="474.48294"
       y2="510.71379"
       gradientUnits="userSpaceOnUse"
       gradientTransform="matrix(0.73147447,0.68186883,-0.68186883,0.73147447,438.36113,-193.39894)" />
  </defs>
  <sodipodi:namedview
     id="base"
     pagecolor="#ffffff"
     bordercolor="#666666"
     borderopacity="1.0"
     inkscape:pageopacity="0.0"
     inkscape:pageshadow="2"
     inkscape:zoom="0.21788366"
     inkscape:cx="-662.93289"
     inkscape:cy="961.33485"
     inkscape:document-units="px"
     inkscape:current-layer="layer1"
     showgrid="false"
     showguides="true"
     inkscape:guide-bbox="true"
     inkscape:window-width="1366"
     inkscape:window-height="702"
     inkscape:window-x="0"
     inkscape:window-y="27"
     inkscape:window-maximized="1" />
  <metadata
     id="metadata7">
    <rdf:RDF>
      <cc:Work
         rdf:about="">
        <dc:format>image/svg+xml</dc:format>
        <dc:type
           rdf:resource="http://purl.org/dc/dcmitype/StillImage" />
        <dc:title></dc:title>
      </cc:Work>
    </rdf:RDF>
  </metadata>
  <g
     inkscape:label="Camada 1"
     inkscape:groupmode="layer"
     id="layer1">
    <path
       style="fill:url(#linearGradient5287);fill-opacity:1;stroke:#16a700;stroke-width:1;stroke-miterlimit:4;stroke-opacity:1"
       d="M 381.17803,357.74946 483.58445,453.2111 390.07101,553.5276 287.66459,458.06596 z"
       id="rect2995"
       inkscape:connector-curvature="0" />
    <g
       transform="matrix(3.743937,0,0,3.4452297,4215.9932,-896.02118)"
       style="font-size:40px;font-style:normal;font-weight:normal;line-height:125%;letter-spacing:0px;word-spacing:0px;fill:#ffffff;fill-opacity:1;stroke:#077700;stroke-width:0.99986655;stroke-miterlimit:4;stroke-opacity:1;stroke-dasharray:none;stroke-dashoffset:0;font-family:Sans"
       id="flowRoot2985">
      <path
         d="m -1043.0418,388.09192 c 0.2933,0.0533 0.6267,0.0933 1,0.12 0.4,10e-6 1.0133,10e-6 1.84,0 1.92,10e-6 3.6533,-0.30666 5.2,-0.92 1.5467,-0.61332 2.8533,-1.47999 3.92,-2.6 1.0933,-1.14665 1.9333,-2.50665 2.52,-4.08 0.5866,-1.59998 0.88,-3.37332 0.88,-5.32 0,-2.10664 -0.6,-3.77331 -1.8,-5 -1.2,-1.22664 -3.16,-1.83997 -5.88,-1.84 -0.6933,3e-5 -1.2533,0.0134 -1.68,0.04 -0.4,0.0267 -0.84,0.0667 -1.32,0.12 l -4.68,19.48 m 20.56,-12.96 c 0,2.48002 -0.4,4.78668 -1.2,6.92 -0.8,2.13334 -1.9867,3.97334 -3.56,5.52 -1.5733,1.54667 -3.5467,2.76 -5.92,3.64 -2.3467,0.88 -5.08,1.32 -8.2,1.32 -1.12,0 -2.3733,-0.0667 -3.76,-0.2 -1.3867,-0.10666 -2.6667,-0.29333 -3.84,-0.56 l 6.44,-26.84 c 1.3067,-0.2933 2.6267,-0.47997 3.96,-0.56 1.3333,-0.10664 2.56,-0.15997 3.68,-0.16 2.0267,3e-5 3.8133,0.2667 5.36,0.8 1.5466,0.5067 2.84,1.24003 3.88,2.2 1.04,0.93336 1.8266,2.08003 2.36,3.44 0.5333,1.33336 0.8,2.82669 0.8,4.48"
         style="font-style:italic;font-variant:normal;font-weight:500;font-stretch:normal;text-align:center;line-height:69.99999881%;letter-spacing:-0.00266494px;word-spacing:-0.00266494px;text-anchor:middle;fill:#ffffff;fill-opacity:1;stroke:#077700;stroke-width:0.99986655;stroke-miterlimit:4;stroke-opacity:1;stroke-dasharray:none;stroke-dashoffset:0;font-family:Ubuntu;-inkscape-font-specification:Ubuntu Medium Italic"
         id="path3002"
         inkscape:connector-curvature="0" />
      <path
         d="m -1006.9976,364.21192 c 3.3067,3e-5 5.8133,0.69336 7.52002,2.08 1.7333,1.36003 2.59997,3.17336 2.6,5.44 -3e-5,1.01336 -0.1467,1.98669 -0.44,2.92 -0.2667,0.90669 -0.70669,1.76002 -1.32,2.56 -0.58669,0.77335 -1.36003,1.46668 -2.32002,2.08 -0.9333,0.61335 -2.0667,1.12001 -3.4,1.52 0.3467,0.61335 0.72,1.36001 1.12,2.24 0.4,0.85334 0.8133,1.78668 1.24,2.8 0.4267,0.98668 0.84,2.02667 1.24,3.12 0.4,1.09334 0.75999,2.17334 1.08002,3.24 l -5.32002,0 c -0.32,-0.96 -0.6533,-1.93333 -1,-2.92 -0.3467,-0.98666 -0.7067,-1.93333 -1.08,-2.84 -0.3733,-0.93332 -0.76,-1.79999 -1.16,-2.6 -0.3733,-0.82665 -0.7467,-1.55999 -1.12,-2.2 -0.24,0.0267 -0.5333,0.04 -0.88,0.04 -0.3467,1e-5 -0.6533,1e-5 -0.92,0 l -2.32,0 -2.52,10.52 -5.04,0 6.52,-27.32 c 1.28,-0.26664 2.5733,-0.43997 3.88,-0.52 1.3333,-0.10664 2.5467,-0.15997 3.64,-0.16 m 5,8.08 c 0,-1.46664 -0.5333,-2.46664 -1.6,-3 -1.0667,-0.55997 -2.4933,-0.83997 -4.28,-0.84 -0.3733,3e-5 -0.7733,0.0134 -1.2,0.04 -0.4267,0.0267 -0.8533,0.0667 -1.28,0.12 l -2.16,9.04 2.24,0 c 1.2,2e-5 2.3067,-0.0933 3.32,-0.28 1.0133,-0.21332 1.88,-0.53331 2.6,-0.96 0.7467,-0.42665 1.32,-0.97331 1.72,-1.64 0.4267,-0.69331 0.64,-1.51998 0.64,-2.48"
         style="font-style:italic;font-variant:normal;font-weight:500;font-stretch:normal;text-align:center;line-height:69.99999881%;letter-spacing:-0.00266494px;word-spacing:-0.00266494px;text-anchor:middle;fill:#ffffff;fill-opacity:1;stroke:#077700;stroke-width:0.99986655;stroke-miterlimit:4;stroke-opacity:1;stroke-dasharray:none;stroke-dashoffset:0;font-family:Ubuntu;-inkscape-font-specification:Ubuntu Medium Italic"
         id="path3004"
         inkscape:connector-curvature="0" />
      <path
         d="m -1027.3451,419.01192 c -0.88,0.45334 -2,0.86667 -3.36,1.24 -1.36,0.37334 -3.0133,0.56 -4.96,0.56 -1.7067,0 -3.2267,-0.25333 -4.56,-0.76 -1.3333,-0.53333 -2.4667,-1.29333 -3.4,-2.28 -0.9333,-0.98666 -1.6533,-2.17333 -2.16,-3.56 -0.48,-1.38666 -0.72,-2.94665 -0.72,-4.68 0,-2.23998 0.3733,-4.41332 1.12,-6.52 0.7467,-2.13331 1.8267,-4.02664 3.24,-5.68 1.4133,-1.65331 3.1333,-2.9733 5.16,-3.96 2.0267,-1.0133 4.32,-1.51997 6.88,-1.52 1.68,3e-5 3.1333,0.1867 4.36,0.56 1.2533,0.37336 2.3467,0.8267 3.28,1.36 l -1.92,4.04 c -0.8533,-0.50664 -1.7733,-0.89331 -2.76,-1.16 -0.96,-0.29331 -2.0533,-0.43997 -3.28,-0.44 -1.68,3e-5 -3.1867,0.37336 -4.52,1.12 -1.3333,0.74669 -2.48,1.73336 -3.44,2.96 -0.9333,1.20002 -1.6533,2.57335 -2.16,4.12 -0.48,1.54668 -0.72,3.12002 -0.72,4.72 0,2.48001 0.5333,4.32001 1.6,5.52 1.0933,1.17334 2.68,1.76001 4.76,1.76 1.6,10e-6 2.96,-0.17333 4.08,-0.52 1.12,-0.37333 2.08,-0.74666 2.88,-1.12 l 0.6,4.24"
         style="font-style:italic;font-variant:normal;font-weight:500;font-stretch:normal;text-align:center;line-height:69.99999881%;letter-spacing:0.00266494px;word-spacing:-0.00266494px;text-anchor:middle;fill:#ffffff;fill-opacity:1;stroke:#077700;stroke-width:0.99986655;stroke-miterlimit:4;stroke-opacity:1;stroke-dasharray:none;stroke-dashoffset:0;font-family:Ubuntu;-inkscape-font-specification:Ubuntu Medium Italic"
         id="path3006"
         inkscape:connector-curvature="0" />
      <path
         d="m -1005.2224,420.21192 c -0.08,-1.12 -0.1734,-2.22666 -0.28,-3.32 -0.08,-1.11999 -0.1734,-2.19999 -0.28,-3.24 l -11.24,0 c -0.6134,1.04001 -1.2267,2.10667 -1.84,3.2 -0.5867,1.06667 -1.1867,2.18667 -1.8,3.36 l -5.4,0 c 1.6266,-2.82666 3.1733,-5.49332 4.64,-8 1.4933,-2.50665 2.9333,-4.89332 4.32,-7.16 1.4133,-2.26665 2.8,-4.42664 4.16,-6.48 1.3866,-2.07997 2.7733,-4.10664 4.16,-6.08 l 4.68,0 c 0.8533,3.97336 1.5866,8.32002 2.2,13.04 0.6133,4.69335 1.2,9.58667 1.76,14.68 l -5.08,0 m -2.32,-22.44 c -1.0134,1.57336 -2.1467,3.34669 -3.4,5.32 -1.2267,1.94668 -2.5334,4.13335 -3.92,6.56 l 8.68,0 c -0.16,-1.89332 -0.36,-3.82665 -0.6,-5.8 -0.2134,-1.99998 -0.4667,-4.02664 -0.76,-6.08"
         style="font-style:italic;font-variant:normal;font-weight:500;font-stretch:normal;text-align:center;line-height:69.99999881%;letter-spacing:0.00266494px;word-spacing:-0.00266494px;text-anchor:middle;fill:#ffffff;fill-opacity:1;stroke:#077700;stroke-width:0.99986655;stroke-miterlimit:4;stroke-opacity:1;stroke-dasharray:none;stroke-dashoffset:0;font-family:Ubuntu;-inkscape-font-specification:Ubuntu Medium Italic"
         id="path3008"
         inkscape:connector-curvature="0" />
    </g>
  </g>
</svg>
